<?xml version="1.0" standalone="no"?>
<svg xmlns="http://www.w3.org/2000/svg" xmlns:xlink="http://www.w3.org/1999/xlink" version="1.1">
	<defs>
	<!-- icons -->		
 <symbol id="home-button-icon" viewBox="0 0 300 300">
     <g id="house" fill="none" stroke="#000">
         <path id="house-roof" stroke-width="20" stroke-linecap="round" d="M10 125 L150 15 L290 125" />
         <path id="house-body" fill="#000" fill-rule="evenodd" d="M16 140 L150 36 L284 140 L284 300 L250 300 L250 150 L170 150 L170 300 L16 300 L16 140 M135 245 L135 160 L50 160 L50 245 L135 245" />
         <rect id="house-door" fill="#222"  x="177" y="157" width="66" height="143" />
     </g>
 </symbol>
 
 <symbol id="phone-button-icon" viewBox="0 0 320 568" >
     <path id = "outer-edge" fill="black" stroke="white" stroke-width="4" d = "M 0 35 Q 0 0 35 0 L 285 0 Q 320 0 320 35 L 320 533 Q 320 568 285 568 L 35 568 Q 0 568 0 533 z" />
     <rect id="inner-display" fill="#cfcfcf"  stroke="white" stroke-width="2" x="22" y="64" width="276" height="414" />
     <circle id="home-button-dot" fill="white" stroke="white" stroke-width="2" cx="160" cy="528" r="16"/>
 </symbol>
 
 <symbol id="email-button-icon" viewBox="0 0 500 380" >
     <g id="letter">
         <path id = "letter-body"  fill="#cfcfcf" stroke="black" stroke-width="5" d = "M 0 10 Q 0 0 10 0 L 490 0 Q 500 0 500 10 L 500 370 Q 500 380 490 380 L 10 380 Q 0 380 0 370 z" />
         <path id = "letter-fold"  fill="#f2f1cd" stroke="black" stroke-width="5" d = "M 1.5 8 L 240 210 Q 250 215 260 210 L 498.5 8" />
     </g>
     <text id="at-sign" fill="black" stroke="black" stroke-size="1px"  font-size="400px" x="68" y="320" font-family="Open-Sans">@</text>	    
 </symbol>
  
	</defs>	
	
</svg>